<svg width="178" height="178" viewBox="0 0 178 178" fill="none" xmlns="http://www.w3.org/2000/svg">
<path d="M29.87 155.29C32.1483 157.313 34.528 159.219 37 161L42.1 141.9L29.87 155.29Z" fill="#DF5726"/>
<path d="M17 130.28V141.16C20.7652 146.313 25.0696 151.05 29.84 155.29L42.1 141.9L17 130.28Z" fill="#DF4D27"/>
<path d="M12.48 134.27C13.8933 136.637 15.41 138.933 17.03 141.16V130.28L12.48 134.27Z" fill="#E46625"/>
<path d="M8.85999 127.55C9.97332 129.85 11.18 132.09 12.48 134.27L17.03 130.27L8.85999 127.55Z" fill="#DD5326"/>
<path d="M115 138.73L133.36 165.73C137.169 163.515 140.808 161.021 144.25 158.27L146.91 138.74L115 138.73Z" fill="#DD4A27"/>
<path d="M88.44 143L92 177.62C92.52 177.62 93 177.62 93.55 177.56L115 138.73L88.44 143Z" fill="#DD4A27"/>
<path d="M70.45 1.91C68.3767 2.33667 66.33 2.84334 64.31 3.43C60.099 4.64584 55.9843 6.1734 52 8L69.48 12L107.48 4.6L70.45 1.91Z" fill="#F8C01F"/>
<path d="M38.3 63.73L58.05 86.97L70.97 54.22L38.3 63.73Z" fill="#ED8423"/>
<path d="M140.1 55.28L170.1 52.9C169.24 50.96 168.313 49.0567 167.32 47.19L143.9 29.93L140.1 55.28Z" fill="#FFDD52"/>
<path d="M38.3 107.04L60.33 128.17L58.05 86.97L38.3 107.04Z" fill="#E17627"/>
<path d="M42.1 141.9L60.33 128.17L38.3 107.04L42.1 141.9Z" fill="#E25A26"/>
<path d="M17.03 130.28L42.1 141.9L38.3 107.04L17.03 130.28Z" fill="#E56C25"/>
<path d="M107.44 4.57001L69.45 11.97L93 34.15L107.44 4.57001Z" fill="#FFE267"/>
<path d="M93 34.15L70.97 54.22L98.32 64.78L93 34.15Z" fill="#FBB924"/>
<path d="M93 34.15L69.45 11.97L70.97 54.22L93 34.15Z" fill="#F8C01F"/>
<path d="M114.73 3.83C100.365 -0.514485 85.1374 -1.17475 70.45 1.91L107.45 4.57L114.73 3.83Z" fill="#FFE267"/>
<path d="M65.05 174.46C72.7979 176.604 80.8009 177.687 88.84 177.68C89.9 177.68 90.95 177.68 92 177.62L88.44 143L65.05 174.46Z" fill="#DC3627"/>
<path d="M42.1 141.9L62.92 173.84L64.01 174.16L60.33 128.16L42.1 141.9Z" fill="#DB4528"/>
<path d="M37 161C44.9005 166.692 53.6848 171.044 63 173.88L42.1 141.9L37 161Z" fill="#DA2528"/>
<path d="M69.45 11.97L51.98 32.04L70.97 54.22L69.45 11.97Z" fill="#EDB31E"/>
<path d="M70.97 54.22L51.98 32.04L38.3 63.73L70.97 54.22Z" fill="#F8C01F"/>
<path d="M69.45 12L52 8C47.2927 10.1491 42.7822 12.7055 38.52 15.64L52 32L69.45 12Z" fill="#E99D24"/>
<path d="M115.03 138.73H146.94L120.35 122.88L115.03 138.73Z" fill="#E58625"/>
<path d="M93.55 177.56C102.033 177.12 110.409 175.463 118.42 172.64L115 138.73L93.55 177.56Z" fill="#F16724"/>
<path d="M118.42 172.64C123.625 170.806 128.647 168.489 133.42 165.72L115.06 138.72L118.42 172.64Z" fill="#E56C25"/>
<path d="M98.32 64.78L89.2 105.98L119.59 80.63L98.32 64.78Z" fill="#EA9A24"/>
<path d="M173.76 115C175.688 108.732 176.912 102.269 177.41 95.73L162.89 94.33L173.76 115Z" fill="#E58524"/>
<path d="M172.68 59.39L162.89 94.39L177.41 95.79C177.59 93.5 177.68 91.2 177.68 88.87C177.695 78.831 176.005 68.8625 172.68 59.39V59.39Z" fill="#FBB11B"/>
<path d="M144.28 158.26C149.509 154.077 154.252 149.321 158.42 144.08L146.94 138.73L144.28 158.26Z" fill="#E56C25"/>
<path d="M165.21 134.26C167.807 129.906 170.022 125.336 171.83 120.6L158.34 117.6L165.21 134.26Z" fill="#E36E26"/>
<path d="M158.4 117.26V117.46V117.6L171.89 120.6C172.59 118.77 173.24 116.92 173.82 115.03L162.89 94.36L158.4 117.26Z" fill="#ED8423"/>
<path d="M146.94 138.73L158.42 144.08C160.898 140.96 163.166 137.68 165.21 134.26L158.34 117.6L146.94 138.73Z" fill="#E57626"/>
<path d="M116.55 19.36L107.44 4.57001L99.84 39.43L116.55 19.36Z" fill="#FEDB51"/>
<path d="M99.84 39.43L107.44 4.57001L93 34.15L99.84 39.43Z" fill="#FFE267"/>
<path d="M99.84 39.43L93 34.15L98.32 64.78L99.84 39.43Z" fill="#FAD511"/>
<path d="M68.69 99.64L89.2 105.98L98.32 64.78L68.69 99.64Z" fill="#E19025"/>
<path d="M70.97 54.22L68.69 99.64L98.32 64.78L70.97 54.22Z" fill="#EC8C23"/>
<path d="M58.05 86.97L68.69 99.64L70.97 54.22L58.05 86.97Z" fill="#E58625"/>
<path d="M58.05 86.97L60.33 128.17L68.69 99.64L58.05 86.97Z" fill="#E58524"/>
<path d="M29.95 76.41L58.05 86.97L38.3 63.73L29.95 76.41Z" fill="#E57626"/>
<path d="M38.3 107.04L58.05 86.97L29.95 76.41L38.3 107.04Z" fill="#E58524"/>
<path d="M29.95 76.41L21.59 83.8L38.3 107.04L29.95 76.41Z" fill="#E17627"/>
<path d="M38.3 63.73L13.99 57.39L29.95 76.41L38.3 63.73Z" fill="#E57626"/>
<path d="M13.99 57.39L21.59 83.8L29.95 76.41L13.99 57.39Z" fill="#E56C25"/>
<path d="M14 57.39L11.5 45.1C8.24111 50.8435 5.6381 56.9351 3.73998 63.26C3.41998 64.31 3.12998 65.37 2.84998 66.43L21.59 83.8L14 57.39Z" fill="#E58625"/>
<path d="M124.91 89.08V56.34L119.59 80.63L124.91 89.08Z" fill="#FDC149"/>
<path d="M119.59 80.63L124.91 56.34L98.32 64.78L119.59 80.63Z" fill="#FCB81E"/>
<path d="M124.91 56.34L116.55 19.36L99.84 39.43L124.91 56.34Z" fill="#FFE473"/>
<path d="M124.91 56.34L99.84 39.43L98.32 64.78L124.91 56.34Z" fill="#FFC42F"/>
<path d="M143.9 29.93L116.55 19.36L124.91 56.34L143.9 29.93Z" fill="#FFDD52"/>
<path d="M140.1 55.28L143.9 29.93L124.91 56.34L140.1 55.28Z" fill="#FFE57C"/>
<path d="M124.91 89.08L140.1 55.28L124.91 56.34V89.08Z" fill="#EDB31E"/>
<path d="M116.55 19.36L142.85 18.3C137.379 14.0989 131.435 10.5515 125.14 7.73001L107.44 4.57001L116.55 19.36Z" fill="#FFE267"/>
<path d="M116.6 4.42L114.73 3.83L107.44 4.57L125.14 7.73C122.351 6.48375 119.501 5.37902 116.6 4.42V4.42Z" fill="#FFCC4C"/>
<path d="M167.33 47.19C163.315 39.6464 158.236 32.7189 152.25 26.62L143.9 29.93L167.33 47.19Z" fill="#FAD511"/>
<path d="M143.9 29.93L152.25 26.62C149.318 23.6275 146.176 20.8472 142.85 18.3L116.55 19.36L143.9 29.93Z" fill="#FFE681"/>
<path d="M21.59 83.8L17.79 109.15L38.3 107.04L21.59 83.8Z" fill="#E36E26"/>
<path d="M17.79 109.15L17.03 130.28L38.3 107.04L17.79 109.15Z" fill="#E46625"/>
<path d="M21.59 83.8L2.85001 66.43C2.69001 67.05 2.54001 67.66 2.39001 68.28L17.79 109.15L21.59 83.8Z" fill="#E56C25"/>
<path d="M17.79 109.15L5.12 118.64C6.20543 121.675 7.45391 124.649 8.85999 127.55L17 130.28L17.79 109.15Z" fill="#DD4B27"/>
<path d="M2.38999 68.28C-1.55086 84.9809 -0.603159 102.463 5.11999 118.64L17.79 109.15L2.38999 68.28Z" fill="#DD4A27"/>
<path d="M51.98 32.04L25.39 36.26L38.3 63.73L51.98 32.04Z" fill="#FBC139"/>
<path d="M52 32L38.49 15.63C34.0516 18.7086 29.8983 22.1792 26.08 26L25.39 36.3L52 32Z" fill="#F8C01F"/>
<path d="M25.39 36.26L13.99 57.39L38.3 63.73L25.39 36.26Z" fill="url(#paint0_linear)"/>
<path d="M26.08 26C24.26 27.82 22.51 29.72 20.85 31.7L25.39 36.3L26.08 26Z" fill="#EDB31E"/>
<path d="M25.39 36.26L20.85 31.66C17.3264 35.8428 14.1965 40.3418 11.5 45.1L14 57.39L25.39 36.26Z" fill="#E57626"/>
<path d="M120.35 122.88L120.58 122.58L120.63 122.51L147.7 85.91L124.91 89.08L120.35 122.88Z" fill="#ED8423"/>
<path d="M162.89 94.36L172.68 59.36C172.32 58.3267 171.94 57.3067 171.54 56.3L147.7 85.91L162.89 94.36Z" fill="#F8C01F"/>
<path d="M147.7 85.91L171.54 56.33C171.09 55.18 170.61 54.03 170.11 52.9L140.11 55.28L147.7 85.91Z" fill="#FAD511"/>
<path d="M158.23 117.28L158.34 117.6L162.9 94.36L147.7 85.91L158.23 117.28Z" fill="#E58524"/>
<path d="M158.23 117.28L147.7 85.91L120.35 122.88L158.23 117.28Z" fill="#F8A027"/>
<path d="M147.7 85.91L140.1 55.28L124.91 89.08L147.7 85.91Z" fill="#F8C01F"/>
<path d="M70.21 129.22L88.44 142.96L89.2 105.98L70.21 129.22Z" fill="#E26626"/>
<path d="M68.69 99.64L70.21 129.22L89.2 105.98L68.69 99.64Z" fill="#E36E26"/>
<path d="M70.21 129.22L64.32 174.22L65.05 174.43L88.44 143L70.21 129.22Z" fill="#DB3127"/>
<path d="M60.33 128.17L70.21 129.22L68.69 99.64L60.33 128.17Z" fill="#E06226"/>
<path d="M60.33 128.17L64.01 174.17L64.32 174.26L70.21 129.26L60.33 128.17Z" fill="#D64127"/>
<path d="M119.59 80.63L107.44 115.49L124.91 89.08L119.59 80.63Z" fill="#ED8423"/>
<path d="M107.44 115.49L115.03 138.73L120.35 122.88L107.44 115.49Z" fill="#E36E26"/>
<path d="M89.2 105.98L107.44 115.49L119.59 80.63L89.2 105.98Z" fill="#EEA327"/>
<path d="M88.44 142.96L115.03 138.73L107.44 115.49L88.44 142.96Z" fill="#E57626"/>
<path d="M89.2 105.98L88.44 142.96L107.44 115.49L89.2 105.98Z" fill="#E37A26"/>
<path d="M120.35 122.88L158.23 117.28L158.34 117.6L146.94 138.73L120.35 122.88Z" fill="#E36E26"/>
<path d="M120.35 122.88L107.44 115.49L124.91 89.08L120.35 122.88Z" fill="#E58625"/>
<path d="M74.16 94.79H47.87L36.19 106.22V134.78L47.87 146.2H74.82L85.82 134.78V106.21L74.16 94.79ZM74.16 134.79H47.87V106.21H74.16V134.79Z" fill="white"/>
<path d="M141.49 94.79H130.06V134.78V135.85H122.92V134.78V120.5V106.21L111.5 94.79H104.36L92.94 106.21V114.07V120.5V126.92V146.2H104.36V126.92V120.5V114.07V106.21H111.5V120.5V134.78L122.92 146.2H130.06L141.49 134.78V94.79Z" fill="white"/>
<defs>
<linearGradient id="paint0_linear" x1="13.99" y1="50" x2="38.3" y2="50" gradientUnits="userSpaceOnUse">
<stop stop-color="#EF9E23"/>
<stop offset="1" stop-color="#EC9222"/>
</linearGradient>
</defs>
</svg>
