<svg xmlns="http://www.w3.org/2000/svg" xmlns:xlink="http://www.w3.org/1999/xlink" width="179.14" height="219.91" viewBox="0 0 179.14 219.91">
  <defs>
    <linearGradient id="linear-gradient" y1="0.5" x2="1" y2="0.5" gradientUnits="objectBoundingBox">
      <stop offset="0" stop-color="#ef9e23"/>
      <stop offset="1" stop-color="#ec9222"/>
    </linearGradient>
  </defs>
  <g id="Group_3" data-name="Group 3" transform="translate(-2511 -430)">
    <g id="Group_2" data-name="Group 2">
      <g id="Group_1" data-name="Group 1">
        <path id="Path_1" data-name="Path 1" d="M6.41,202.16H7.74l5.94,13.31H11.74L10,211.54H4.33l-1.66,3.93H.73Zm2.79,7.7-2.14-4.8-2,4.8Z" transform="translate(2511 430)" fill="#ff6f00"/>
        <path id="Path_2" data-name="Path 2" d="M16.61,206.75v1.11a3.48,3.48,0,0,1,2.63-1.28,2.87,2.87,0,0,1,1.51.42,2.79,2.79,0,0,1,1.07,1.16,5.57,5.57,0,0,1,.36,2.32v5H20.46v-5a3.43,3.43,0,0,0-.41-1.91,1.56,1.56,0,0,0-1.36-.57,2.5,2.5,0,0,0-2.08,1.22v6.23H14.85v-8.72Z" transform="translate(2511 430)" fill="#ff6f00"/>
        <path id="Path_3" data-name="Path 3" d="M29.55,206.75h1.93l-6.17,13.16H23.39l2.95-6.32L23,206.75h2l2.36,4.92Z" transform="translate(2511 430)" fill="#ff6f00"/>
        <path id="Path_4" data-name="Path 4" d="M43.59,206.75h1.85l-3.85,8.87H41l-2.58-6.07-2.54,6.07h-.56l-3.88-8.87h1.85L35.61,212l2.23-5.29h1.27l2.2,5.29Z" transform="translate(2511 430)" fill="#ff6f00"/>
        <path id="Path_5" data-name="Path 5" d="M46.61,202.23h1.73v5.67A3.33,3.33,0,0,1,51,206.58a2.87,2.87,0,0,1,1.56.44,2.68,2.68,0,0,1,1,1.2,6,6,0,0,1,.33,2.28v5H52.22v-5.39a2.4,2.4,0,0,0-.47-1.54,1.5,1.5,0,0,0-1.24-.59,2.09,2.09,0,0,0-1.07.3,4.79,4.79,0,0,0-1.1,1v6.25H46.61Z" transform="translate(2511 430)" fill="#ff6f00"/>
        <path id="Path_6" data-name="Path 6" d="M63.78,211.26H57.65a2.81,2.81,0,0,0,.84,2,2.77,2.77,0,0,0,2,.74,5.21,5.21,0,0,0,3.14-1.06v1.68a5.52,5.52,0,0,1-1.57.76,6.651,6.651,0,0,1-1.84.23,4.11,4.11,0,0,1-2.33-.6,4.41,4.41,0,0,1-1.42-1.6,4.93,4.93,0,0,1-.54-2.34,4.62,4.62,0,0,1,1.13-3.23A3.77,3.77,0,0,1,60,206.58a3.43,3.43,0,0,1,2.76,1.21,4.84,4.84,0,0,1,1,3.25Zm-6.09-1h4.38a2.4,2.4,0,0,0-.61-1.59,2,2,0,0,0-1.48-.56,2.08,2.08,0,0,0-1.52.56,2.72,2.72,0,0,0-.77,1.56Z" transform="translate(2511 430)" fill="#ff6f00"/>
        <path id="Path_7" data-name="Path 7" d="M67.49,206.75v2l.09-.15c.84-1.35,1.67-2,2.5-2a3.07,3.07,0,0,1,2,1l-.91,1.51a2.53,2.53,0,0,0-1.67-.85,1.78,1.78,0,0,0-1.44.79,3,3,0,0,0-.61,1.89v4.56H65.76v-8.72Z" transform="translate(2511 430)" fill="#ff6f00"/>
        <path id="Path_8" data-name="Path 8" d="M80.36,211.26H74.23a2.9,2.9,0,0,0,.84,2,2.79,2.79,0,0,0,2,.74,5.24,5.24,0,0,0,3.14-1.06v1.68a5.57,5.57,0,0,1-1.58.76,6.619,6.619,0,0,1-1.83.23,4.09,4.09,0,0,1-2.33-.6A4.43,4.43,0,0,1,73,213.4a5,5,0,0,1-.53-2.34,4.62,4.62,0,0,1,1.13-3.23,3.75,3.75,0,0,1,2.92-1.25,3.45,3.45,0,0,1,2.77,1.21,4.84,4.84,0,0,1,1,3.25Zm-6.09-1h4.39a2.41,2.41,0,0,0-.62-1.59,1.94,1.94,0,0,0-1.48-.56,2.12,2.12,0,0,0-1.52.56,2.78,2.78,0,0,0-.77,1.56Z" transform="translate(2511 430)" fill="#ff6f00"/>
        <path id="Path_9" data-name="Path 9" d="M87.86,202.23h7.5v1.69H89.75v4h5.42v1.7H89.75v4.11h5.79v1.69H87.86Z" transform="translate(2511 430)" fill="#ff6f00"/>
        <path id="Path_10" data-name="Path 10" d="M102.66,206.75h1.87l-3.85,8.87h-.59l-3.94-8.87H98l2.35,5.36Z" transform="translate(2511 430)" fill="#ff6f00"/>
        <path id="Path_11" data-name="Path 11" d="M112.85,211.26h-6.13a2.9,2.9,0,0,0,.84,2,2.79,2.79,0,0,0,2,.74,5.24,5.24,0,0,0,3.14-1.06v1.68a5.44,5.44,0,0,1-1.58.76,6.619,6.619,0,0,1-1.83.23A4.09,4.09,0,0,1,107,215a4.43,4.43,0,0,1-1.43-1.6,5,5,0,0,1-.53-2.34,4.62,4.62,0,0,1,1.13-3.23,3.75,3.75,0,0,1,2.92-1.25,3.45,3.45,0,0,1,2.77,1.21,4.84,4.84,0,0,1,1,3.25Zm-6.09-1h4.39a2.41,2.41,0,0,0-.62-1.59,1.94,1.94,0,0,0-1.48-.56,2.12,2.12,0,0,0-1.52.56,2.78,2.78,0,0,0-.77,1.56Z" transform="translate(2511 430)" fill="#ff6f00"/>
        <path id="Path_12" data-name="Path 12" d="M116.57,206.75v2l.09-.15c.83-1.35,1.67-2,2.5-2a3.09,3.09,0,0,1,2,1l-.91,1.51a2.55,2.55,0,0,0-1.67-.85,1.77,1.77,0,0,0-1.44.79,3,3,0,0,0-.61,1.89v4.56h-1.74v-8.72Z" transform="translate(2511 430)" fill="#ff6f00"/>
        <path id="Path_13" data-name="Path 13" d="M128.33,206.75h1.93l-6.17,13.16h-1.93l3-6.32-3.36-6.84h2l2.35,4.92Z" transform="translate(2511 430)" fill="#ff6f00"/>
        <path id="Path_14" data-name="Path 14" d="M142.37,206.75h1.85l-3.85,8.87h-.55l-2.58-6.07-2.55,6.07h-.55l-3.89-8.87h1.86l2.28,5.29,2.22-5.29h1.28l2.2,5.29Z" transform="translate(2511 430)" fill="#ff6f00"/>
        <path id="Path_15" data-name="Path 15" d="M145.39,202.23h1.72v5.67a3.35,3.35,0,0,1,2.69-1.32,2.87,2.87,0,0,1,1.56.44,2.68,2.68,0,0,1,1,1.2,6,6,0,0,1,.33,2.28v5H151v-5.39a2.4,2.4,0,0,0-.47-1.54,1.52,1.52,0,0,0-1.24-.59,2.06,2.06,0,0,0-1.07.3,5,5,0,0,0-1.11,1v6.25h-1.72Z" transform="translate(2511 430)" fill="#ff6f00"/>
        <path id="Path_16" data-name="Path 16" d="M162.55,211.26h-6.12a2.84,2.84,0,0,0,.83,2,2.79,2.79,0,0,0,2,.74,5.24,5.24,0,0,0,3.14-1.06v1.68a5.52,5.52,0,0,1-1.57.76,6.7,6.7,0,0,1-1.84.23,4.11,4.11,0,0,1-2.33-.6,4.32,4.32,0,0,1-1.42-1.6,4.93,4.93,0,0,1-.54-2.34,4.62,4.62,0,0,1,1.13-3.23,3.77,3.77,0,0,1,2.93-1.25,3.44,3.44,0,0,1,2.76,1.21,4.84,4.84,0,0,1,1,3.25Zm-6.09-1h4.39a2.36,2.36,0,0,0-.62-1.59,1.94,1.94,0,0,0-1.47-.56,2.08,2.08,0,0,0-1.52.56,2.73,2.73,0,0,0-.78,1.56Z" transform="translate(2511 430)" fill="#ff6f00"/>
        <path id="Path_17" data-name="Path 17" d="M166.27,206.75v2l.09-.15c.84-1.35,1.67-2,2.5-2a3.09,3.09,0,0,1,2,1l-.91,1.51a2.55,2.55,0,0,0-1.67-.85,1.78,1.78,0,0,0-1.44.79,3,3,0,0,0-.61,1.89v4.56h-1.74v-8.72Z" transform="translate(2511 430)" fill="#ff6f00"/>
        <path id="Path_18" data-name="Path 18" d="M179.14,211.26H173a2.9,2.9,0,0,0,.84,2,2.78,2.78,0,0,0,2,.74,5.24,5.24,0,0,0,3.15-1.06v1.68a5.569,5.569,0,0,1-1.58.76,6.619,6.619,0,0,1-1.83.23,4.09,4.09,0,0,1-2.33-.6,4.43,4.43,0,0,1-1.43-1.6,5,5,0,0,1-.53-2.34,4.58,4.58,0,0,1,1.13-3.23,3.75,3.75,0,0,1,2.92-1.25,3.45,3.45,0,0,1,2.77,1.21,4.84,4.84,0,0,1,1,3.25Zm-6.09-1h4.39a2.41,2.41,0,0,0-.62-1.59,2,2,0,0,0-1.48-.56,2.1,2.1,0,0,0-1.52.56,2.78,2.78,0,0,0-.77,1.56Z" transform="translate(2511 430)" fill="#ff6f00"/>
        <path id="Path_19" data-name="Path 19" d="M107.44,115.49l12.91,7.39,4.56-33.8Z" transform="translate(2511 430)" fill="none"/>
        <path id="Path_20" data-name="Path 20" d="M29.87,155.29A89.813,89.813,0,0,0,37,161l5.1-19.1Z" transform="translate(2511 430)" fill="#df5726"/>
        <path id="Path_21" data-name="Path 21" d="M17,130.28v10.88a89.72,89.72,0,0,0,12.84,14.13L42.1,141.9Z" transform="translate(2511 430)" fill="#df4d27"/>
        <path id="Path_22" data-name="Path 22" d="M12.48,134.27q2.12,3.55,4.55,6.89V130.28Z" transform="translate(2511 430)" fill="#e46625"/>
        <path id="Path_23" data-name="Path 23" d="M8.86,127.55q1.67,3.45,3.62,6.72l4.55-4Z" transform="translate(2511 430)" fill="#dd5326"/>
        <path id="Path_24" data-name="Path 24" d="M115,138.73l18.36,27a89.56,89.56,0,0,0,10.89-7.46l2.66-19.53Z" transform="translate(2511 430)" fill="#dd4a27"/>
        <path id="Path_25" data-name="Path 25" d="M88.44,143,92,177.62a13.65,13.65,0,0,0,1.55-.06L115,138.73Z" transform="translate(2511 430)" fill="#dd4a27"/>
        <path id="Path_26" data-name="Path 26" d="M70.45,1.91q-3.11.64-6.14,1.52A88.341,88.341,0,0,0,52,8l17.48,4,38-7.4Z" transform="translate(2511 430)" fill="#f8c01f"/>
        <path id="Path_27" data-name="Path 27" d="M38.3,63.73,58.05,86.97,70.97,54.22Z" transform="translate(2511 430)" fill="#ed8423"/>
        <path id="Path_28" data-name="Path 28" d="M140.1,55.28l30-2.38q-1.29-2.91-2.78-5.71L143.9,29.93Z" transform="translate(2511 430)" fill="#ffdd52"/>
        <path id="Path_29" data-name="Path 29" d="M38.3,107.04l22.03,21.13-2.28-41.2Z" transform="translate(2511 430)" fill="#e17627"/>
        <path id="Path_30" data-name="Path 30" d="M42.1,141.9l18.23-13.73L38.3,107.04Z" transform="translate(2511 430)" fill="#e25a26"/>
        <path id="Path_31" data-name="Path 31" d="M17.03,130.28,42.1,141.9l-3.8-34.86Z" transform="translate(2511 430)" fill="#e56c25"/>
        <path id="Path_32" data-name="Path 32" d="M107.44,4.57l-37.99,7.4L93,34.15Z" transform="translate(2511 430)" fill="#ffe267"/>
        <path id="Path_33" data-name="Path 33" d="M93,34.15,70.97,54.22,98.32,64.78Z" transform="translate(2511 430)" fill="#fbb924"/>
        <path id="Path_34" data-name="Path 34" d="M93,34.15,69.45,11.97l1.52,42.25Z" transform="translate(2511 430)" fill="#f8c01f"/>
        <path id="Path_35" data-name="Path 35" d="M114.73,3.83A89.45,89.45,0,0,0,70.45,1.91l37,2.66Z" transform="translate(2511 430)" fill="#ffe267"/>
        <path id="Path_36" data-name="Path 36" d="M65.05,174.46a88.889,88.889,0,0,0,23.79,3.22c1.06,0,2.11,0,3.16-.06L88.44,143Z" transform="translate(2511 430)" fill="#dc3627"/>
        <path id="Path_37" data-name="Path 37" d="M42.1,141.9l20.82,31.94,1.09.32-3.68-46Z" transform="translate(2511 430)" fill="#db4528"/>
        <path id="Path_38" data-name="Path 38" d="M37,161a88.651,88.651,0,0,0,26,12.88L42.1,141.9Z" transform="translate(2511 430)" fill="#da2528"/>
        <path id="Path_39" data-name="Path 39" d="M69.45,11.97,51.98,32.04,70.97,54.22Z" transform="translate(2511 430)" fill="#edb31e"/>
        <path id="Path_40" data-name="Path 40" d="M70.97,54.22,51.98,32.04,38.3,63.73Z" transform="translate(2511 430)" fill="#f8c01f"/>
        <path id="Path_41" data-name="Path 41" d="M69.45,12,52,8a88.81,88.81,0,0,0-13.48,7.64L52,32Z" transform="translate(2511 430)" fill="#e99d24"/>
        <path id="Path_42" data-name="Path 42" d="M115.03,138.73h31.91l-26.59-15.85Z" transform="translate(2511 430)" fill="#e58625"/>
        <path id="Path_43" data-name="Path 43" d="M93.55,177.56a88.639,88.639,0,0,0,24.87-4.92L115,138.73Z" transform="translate(2511 430)" fill="#f16724"/>
        <path id="Path_44" data-name="Path 44" d="M118.42,172.64a88.493,88.493,0,0,0,15-6.92l-18.36-27Z" transform="translate(2511 430)" fill="#e56c25"/>
        <path id="Path_45" data-name="Path 45" d="M98.32,64.78l-9.12,41.2,30.39-25.35Z" transform="translate(2511 430)" fill="#ea9a24"/>
        <path id="Path_46" data-name="Path 46" d="M173.76,115a88.39,88.39,0,0,0,3.65-19.27l-14.52-1.4Z" transform="translate(2511 430)" fill="#e58524"/>
        <path id="Path_47" data-name="Path 47" d="M172.68,59.39l-9.79,35,14.52,1.4c.18-2.29.27-4.59.27-6.92a88.61,88.61,0,0,0-5-29.48Z" transform="translate(2511 430)" fill="#fbb11b"/>
        <path id="Path_48" data-name="Path 48" d="M144.28,158.26a89.451,89.451,0,0,0,14.14-14.18l-11.48-5.35Z" transform="translate(2511 430)" fill="#e56c25"/>
        <path id="Path_49" data-name="Path 49" d="M165.21,134.26a87.861,87.861,0,0,0,6.62-13.66l-13.49-3Z" transform="translate(2511 430)" fill="#e36e26"/>
        <path id="Path_50" data-name="Path 50" d="M158.4,117.26v.2h0v.14l13.49,3c.7-1.83,1.35-3.68,1.93-5.57L162.89,94.36Z" transform="translate(2511 430)" fill="#ed8423"/>
        <path id="Path_51" data-name="Path 51" d="M146.94,138.73l11.48,5.35a90.181,90.181,0,0,0,6.79-9.82l-6.87-16.66Z" transform="translate(2511 430)" fill="#e57626"/>
        <path id="Path_52" data-name="Path 52" d="M116.55,19.36,107.44,4.57l-7.6,34.86Z" transform="translate(2511 430)" fill="#fedb51"/>
        <path id="Path_53" data-name="Path 53" d="M99.84,39.43l7.6-34.86L93,34.15Z" transform="translate(2511 430)" fill="#ffe267"/>
        <path id="Path_54" data-name="Path 54" d="M99.84,39.43,93,34.15l5.32,30.63Z" transform="translate(2511 430)" fill="#fad511"/>
        <path id="Path_55" data-name="Path 55" d="M68.69,99.64l20.51,6.34,9.12-41.2Z" transform="translate(2511 430)" fill="#e19025"/>
        <path id="Path_56" data-name="Path 56" d="M70.97,54.22,68.69,99.64,98.32,64.78Z" transform="translate(2511 430)" fill="#ec8c23"/>
        <path id="Path_57" data-name="Path 57" d="M58.05,86.97,68.69,99.64l2.28-45.42Z" transform="translate(2511 430)" fill="#e58625"/>
        <path id="Path_58" data-name="Path 58" d="M58.05,86.97l2.28,41.2,8.36-28.53Z" transform="translate(2511 430)" fill="#e58524"/>
        <path id="Path_59" data-name="Path 59" d="M29.95,76.41l28.1,10.56L38.3,63.73Z" transform="translate(2511 430)" fill="#e57626"/>
        <path id="Path_60" data-name="Path 60" d="M38.3,107.04,58.05,86.97,29.95,76.41Z" transform="translate(2511 430)" fill="#e58524"/>
        <path id="Path_61" data-name="Path 61" d="M29.95,76.41,21.59,83.8,38.3,107.04Z" transform="translate(2511 430)" fill="#e17627"/>
        <path id="Path_62" data-name="Path 62" d="M38.3,63.73,13.99,57.39,29.95,76.41Z" transform="translate(2511 430)" fill="#e57626"/>
        <path id="Path_63" data-name="Path 63" d="M13.99,57.39l7.6,26.41,8.36-7.39Z" transform="translate(2511 430)" fill="#e56c25"/>
        <path id="Path_64" data-name="Path 64" d="M14,57.39,11.5,45.1A88.13,88.13,0,0,0,3.74,63.26c-.32,1.05-.61,2.11-.89,3.17L21.59,83.8Z" transform="translate(2511 430)" fill="#e58625"/>
        <path id="Path_65" data-name="Path 65" d="M124.91,89.08V56.34l-5.32,24.29Z" transform="translate(2511 430)" fill="#fdc149"/>
        <path id="Path_66" data-name="Path 66" d="M119.59,80.63l5.32-24.29L98.32,64.78Z" transform="translate(2511 430)" fill="#fcb81e"/>
        <path id="Path_67" data-name="Path 67" d="M124.91,56.34l-8.36-36.98L99.84,39.43Z" transform="translate(2511 430)" fill="#ffe473"/>
        <path id="Path_68" data-name="Path 68" d="M124.91,56.34,99.84,39.43,98.32,64.78Z" transform="translate(2511 430)" fill="#ffc42f"/>
        <path id="Path_69" data-name="Path 69" d="M143.9,29.93,116.55,19.36l8.36,36.98Z" transform="translate(2511 430)" fill="#ffdd52"/>
        <path id="Path_70" data-name="Path 70" d="M140.1,55.28l3.8-25.35L124.91,56.34Z" transform="translate(2511 430)" fill="#ffe57c"/>
        <path id="Path_71" data-name="Path 71" d="M124.91,89.08l15.19-33.8-15.19,1.06Z" transform="translate(2511 430)" fill="#edb31e"/>
        <path id="Path_72" data-name="Path 72" d="M116.55,19.36l26.3-1.06A88.55,88.55,0,0,0,125.14,7.73l-17.7-3.16Z" transform="translate(2511 430)" fill="#ffe267"/>
        <path id="Path_73" data-name="Path 73" d="M116.6,4.42l-1.87-.59-7.29.74,17.7,3.16a90.827,90.827,0,0,0-8.54-3.31Z" transform="translate(2511 430)" fill="#ffcc4c"/>
        <path id="Path_74" data-name="Path 74" d="M167.33,47.19a89.2,89.2,0,0,0-15.08-20.57l-8.35,3.31Z" transform="translate(2511 430)" fill="#fad511"/>
        <path id="Path_75" data-name="Path 75" d="M143.9,29.93l8.35-3.31a88.449,88.449,0,0,0-9.4-8.32l-26.3,1.06Z" transform="translate(2511 430)" fill="#ffe681"/>
        <path id="Path_76" data-name="Path 76" d="M21.59,83.8l-3.8,25.35,20.51-2.11Z" transform="translate(2511 430)" fill="#e36e26"/>
        <path id="Path_77" data-name="Path 77" d="M17.79,109.15l-.76,21.13L38.3,107.04Z" transform="translate(2511 430)" fill="#e46625"/>
        <path id="Path_78" data-name="Path 78" d="M21.59,83.8,2.85,66.43c-.16.62-.31,1.23-.46,1.85l15.4,40.87Z" transform="translate(2511 430)" fill="#e56c25"/>
        <path id="Path_79" data-name="Path 79" d="M17.79,109.15,5.12,118.64a89.571,89.571,0,0,0,3.74,8.91L17,130.28Z" transform="translate(2511 430)" fill="#dd4b27"/>
        <path id="Path_80" data-name="Path 80" d="M2.39,68.28a89.42,89.42,0,0,0,2.73,50.36l12.67-9.49Z" transform="translate(2511 430)" fill="#dd4a27"/>
        <path id="Path_81" data-name="Path 81" d="M51.98,32.04,25.39,36.26,38.3,63.73Z" transform="translate(2511 430)" fill="#fbc139"/>
        <path id="Path_82" data-name="Path 82" d="M52,32,38.49,15.63A90.321,90.321,0,0,0,26.08,26l-.69,10.3Z" transform="translate(2511 430)" fill="#f8c01f"/>
        <path id="Path_83" data-name="Path 83" d="M25.39,36.26,13.99,57.39,38.3,63.73Z" transform="translate(2511 430)" fill="url(#linear-gradient)"/>
        <path id="Path_84" data-name="Path 84" d="M26.08,26c-1.82,1.82-3.57,3.72-5.23,5.7l4.54,4.6Z" transform="translate(2511 430)" fill="#edb31e"/>
        <path id="Path_85" data-name="Path 85" d="M25.39,36.26l-4.54-4.6A88.869,88.869,0,0,0,11.5,45.1L14,57.39Z" transform="translate(2511 430)" fill="#e57626"/>
        <path id="Path_86" data-name="Path 86" d="M120.35,122.88l.23-.3.05-.07,27.07-36.6-22.79,3.17Z" transform="translate(2511 430)" fill="#ed8423"/>
        <path id="Path_87" data-name="Path 87" d="M162.89,94.36l9.79-35q-.54-1.55-1.14-3.06L147.7,85.91Z" transform="translate(2511 430)" fill="#f8c01f"/>
        <path id="Path_88" data-name="Path 88" d="M147.7,85.91l23.84-29.58c-.45-1.15-.93-2.3-1.43-3.43l-30,2.38Z" transform="translate(2511 430)" fill="#fad511"/>
        <path id="Path_89" data-name="Path 89" d="M158.23,117.28l.11.32,4.56-23.24-15.2-8.45Z" transform="translate(2511 430)" fill="#e58524"/>
        <path id="Path_90" data-name="Path 90" d="M158.23,117.28,147.7,85.91l-27.35,36.97Z" transform="translate(2511 430)" fill="#f8a027"/>
        <path id="Path_91" data-name="Path 91" d="M147.7,85.91l-7.6-30.63-15.19,33.8Z" transform="translate(2511 430)" fill="#f8c01f"/>
        <path id="Path_92" data-name="Path 92" d="M70.21,129.22l18.23,13.74.76-36.98Z" transform="translate(2511 430)" fill="#e26626"/>
        <path id="Path_93" data-name="Path 93" d="M68.69,99.64l1.52,29.58L89.2,105.98Z" transform="translate(2511 430)" fill="#e36e26"/>
        <path id="Path_94" data-name="Path 94" d="M70.21,129.22l-5.89,45,.73.21L88.44,143Z" transform="translate(2511 430)" fill="#db3127"/>
        <path id="Path_95" data-name="Path 95" d="M60.33,128.17l9.88,1.05L68.69,99.64Z" transform="translate(2511 430)" fill="#e06226"/>
        <path id="Path_96" data-name="Path 96" d="M60.33,128.17l3.68,46,.31.09,5.89-45Z" transform="translate(2511 430)" fill="#d64127"/>
        <path id="Path_97" data-name="Path 97" d="M119.59,80.63l-12.15,34.86,17.47-26.41Z" transform="translate(2511 430)" fill="#ed8423"/>
        <path id="Path_98" data-name="Path 98" d="M107.44,115.49l7.59,23.24,5.32-15.85Z" transform="translate(2511 430)" fill="#e36e26"/>
        <path id="Path_99" data-name="Path 99" d="M89.2,105.98l18.24,9.51,12.15-34.86Z" transform="translate(2511 430)" fill="#eea327"/>
        <path id="Path_100" data-name="Path 100" d="M88.44,142.96l26.59-4.23-7.59-23.24Z" transform="translate(2511 430)" fill="#e57626"/>
        <path id="Path_101" data-name="Path 101" d="M89.2,105.98l-.76,36.98,19-27.47Z" transform="translate(2511 430)" fill="#e37a26"/>
        <path id="Path_102" data-name="Path 102" d="M120.35,122.88l37.88-5.6.11.32-11.4,21.13Z" transform="translate(2511 430)" fill="#e36e26"/>
        <path id="Path_103" data-name="Path 103" d="M120.35,122.88l-12.91-7.39,17.47-26.41Z" transform="translate(2511 430)" fill="#e58625"/>
        <path id="Path_104" data-name="Path 104" d="M74.16,94.79H47.87L36.19,106.22v28.56L47.87,146.2H74.82l11-11.42V106.21Zm0,40H47.87V106.21H74.16Z" transform="translate(2511 430)" fill="#fff"/>
        <path id="Path_105" data-name="Path 105" d="M141.49,94.79H130.06v41.06h-7.14V106.21L111.5,94.79h-7.14L92.94,106.21V146.2h11.42V106.21h7.14v28.57l11.42,11.42h7.14l11.43-11.42Z" transform="translate(2511 430)" fill="#fff"/>
      </g>
    </g>
  </g>
</svg>
