<svg xmlns="http://www.w3.org/2000/svg" xmlns:xlink="http://www.w3.org/1999/xlink" viewBox="0 0 179.14 219.91"><defs><style>.cls-1{fill:#fff;}.cls-2{fill:none;}.cls-3{fill:#df5726;}.cls-4{fill:#df4d27;}.cls-5{fill:#e46625;}.cls-6{fill:#dd5326;}.cls-7{fill:#dd4a27;}.cls-8{fill:#f8c01f;}.cls-9{fill:#ed8423;}.cls-10{fill:#ffdd52;}.cls-11{fill:#e17627;}.cls-12{fill:#e25a26;}.cls-13{fill:#e56c25;}.cls-14{fill:#ffe267;}.cls-15{fill:#fbb924;}.cls-16{fill:#dc3627;}.cls-17{fill:#db4528;}.cls-18{fill:#da2528;}.cls-19{fill:#edb31e;}.cls-20{fill:#e99d24;}.cls-21{fill:#e58625;}.cls-22{fill:#f16724;}.cls-23{fill:#ea9a24;}.cls-24{fill:#e58524;}.cls-25{fill:#fbb11b;}.cls-26{fill:#e36e26;}.cls-27{fill:#e57626;}.cls-28{fill:#fedb51;}.cls-29{fill:#fad511;}.cls-30{fill:#e19025;}.cls-31{fill:#ec8c23;}.cls-32{fill:#fdc149;}.cls-33{fill:#fcb81e;}.cls-34{fill:#ffe473;}.cls-35{fill:#ffc42f;}.cls-36{fill:#ffe57c;}.cls-37{fill:#ffcc4c;}.cls-38{fill:#ffe681;}.cls-39{fill:#dd4b27;}.cls-40{fill:#fbc139;}.cls-41{fill:url(#linear-gradient);}.cls-42{fill:#f8a027;}.cls-43{fill:#e26626;}.cls-44{fill:#db3127;}.cls-45{fill:#e06226;}.cls-46{fill:#d64127;}.cls-47{fill:#eea327;}.cls-48{fill:#e37a26;}</style><linearGradient id="linear-gradient" x1="13.99" y1="50" x2="38.3" y2="50" gradientUnits="userSpaceOnUse"><stop offset="0" stop-color="#ef9e23"/><stop offset="1" stop-color="#ec9222"/></linearGradient></defs><g id="Layer_2" data-name="Layer 2"><g id="Layer_1-2" data-name="Layer 1"><path class="cls-1" d="M6.41,202.16H7.74l5.94,13.31H11.74L10,211.54H4.33l-1.66,3.93H.73Zm2.79,7.7-2.14-4.8-2,4.8Z"/><path class="cls-1" d="M16.61,206.75v1.11a3.48,3.48,0,0,1,2.63-1.28,2.87,2.87,0,0,1,1.51.42,2.79,2.79,0,0,1,1.07,1.16,5.57,5.57,0,0,1,.36,2.32v5H20.46v-5a3.43,3.43,0,0,0-.41-1.91,1.56,1.56,0,0,0-1.36-.57,2.5,2.5,0,0,0-2.08,1.22v6.23H14.85v-8.72Z"/><path class="cls-1" d="M29.55,206.75h1.93l-6.17,13.16H23.39l2.95-6.32L23,206.75h2l2.36,4.92Z"/><path class="cls-1" d="M43.59,206.75h1.85l-3.85,8.87H41l-2.58-6.07-2.54,6.07h-.56l-3.88-8.87h1.85L35.61,212l2.23-5.29h1.27l2.2,5.29Z"/><path class="cls-1" d="M46.61,202.23h1.73v5.67A3.33,3.33,0,0,1,51,206.58a2.87,2.87,0,0,1,1.56.44,2.68,2.68,0,0,1,1,1.2,6,6,0,0,1,.33,2.28v5H52.22v-5.39a2.4,2.4,0,0,0-.47-1.54,1.5,1.5,0,0,0-1.24-.59,2.09,2.09,0,0,0-1.07.3,4.79,4.79,0,0,0-1.1,1v6.25H46.61Z"/><path class="cls-1" d="M63.78,211.26H57.65a2.81,2.81,0,0,0,.84,2,2.77,2.77,0,0,0,2,.74,5.21,5.21,0,0,0,3.14-1.06v1.68a5.52,5.52,0,0,1-1.57.76,6.65,6.65,0,0,1-1.84.23,4.11,4.11,0,0,1-2.33-.6,4.41,4.41,0,0,1-1.42-1.6,4.93,4.93,0,0,1-.54-2.34,4.62,4.62,0,0,1,1.13-3.23A3.77,3.77,0,0,1,60,206.58a3.43,3.43,0,0,1,2.76,1.21,4.84,4.84,0,0,1,1,3.25Zm-6.09-1h4.38a2.4,2.4,0,0,0-.61-1.59,2,2,0,0,0-1.48-.56,2.08,2.08,0,0,0-1.52.56A2.72,2.72,0,0,0,57.69,210.23Z"/><path class="cls-1" d="M67.49,206.75v2l.09-.15c.84-1.35,1.67-2,2.5-2a3.07,3.07,0,0,1,2,1l-.91,1.51a2.53,2.53,0,0,0-1.67-.85,1.78,1.78,0,0,0-1.44.79,3,3,0,0,0-.61,1.89v4.56H65.76v-8.72Z"/><path class="cls-1" d="M80.36,211.26H74.23a2.9,2.9,0,0,0,.84,2,2.79,2.79,0,0,0,2,.74,5.24,5.24,0,0,0,3.14-1.06v1.68a5.57,5.57,0,0,1-1.58.76,6.62,6.62,0,0,1-1.83.23,4.09,4.09,0,0,1-2.33-.6A4.43,4.43,0,0,1,73,213.4a5,5,0,0,1-.53-2.34,4.62,4.62,0,0,1,1.13-3.23,3.75,3.75,0,0,1,2.92-1.25,3.45,3.45,0,0,1,2.77,1.21,4.84,4.84,0,0,1,1,3.25Zm-6.09-1h4.39a2.41,2.41,0,0,0-.62-1.59,1.94,1.94,0,0,0-1.48-.56,2.12,2.12,0,0,0-1.52.56A2.78,2.78,0,0,0,74.27,210.23Z"/><path class="cls-1" d="M87.86,202.23h7.5v1.69H89.75v4h5.42v1.7H89.75v4.11h5.79v1.69H87.86Z"/><path class="cls-1" d="M102.66,206.75h1.87l-3.85,8.87h-.59l-3.94-8.87H98l2.35,5.36Z"/><path class="cls-1" d="M112.85,211.26h-6.13a2.9,2.9,0,0,0,.84,2,2.79,2.79,0,0,0,2,.74,5.24,5.24,0,0,0,3.14-1.06v1.68a5.44,5.44,0,0,1-1.58.76,6.62,6.62,0,0,1-1.83.23A4.09,4.09,0,0,1,107,215a4.43,4.43,0,0,1-1.43-1.6,5,5,0,0,1-.53-2.34,4.62,4.62,0,0,1,1.13-3.23,3.75,3.75,0,0,1,2.92-1.25,3.45,3.45,0,0,1,2.77,1.21,4.84,4.84,0,0,1,1,3.25Zm-6.09-1h4.39a2.41,2.41,0,0,0-.62-1.59,1.94,1.94,0,0,0-1.48-.56,2.12,2.12,0,0,0-1.52.56A2.78,2.78,0,0,0,106.76,210.23Z"/><path class="cls-1" d="M116.57,206.75v2l.09-.15c.83-1.35,1.67-2,2.5-2a3.09,3.09,0,0,1,2,1l-.91,1.51a2.55,2.55,0,0,0-1.67-.85,1.77,1.77,0,0,0-1.44.79,3,3,0,0,0-.61,1.89v4.56h-1.74v-8.72Z"/><path class="cls-1" d="M128.33,206.75h1.93l-6.17,13.16h-1.93l3-6.32-3.36-6.84h2l2.35,4.92Z"/><path class="cls-1" d="M142.37,206.75h1.85l-3.85,8.87h-.55l-2.58-6.07-2.55,6.07h-.55l-3.89-8.87h1.86l2.28,5.29,2.22-5.29h1.28l2.2,5.29Z"/><path class="cls-1" d="M145.39,202.23h1.72v5.67a3.35,3.35,0,0,1,2.69-1.32,2.87,2.87,0,0,1,1.56.44,2.68,2.68,0,0,1,1,1.2,6,6,0,0,1,.33,2.28v5H151v-5.39a2.4,2.4,0,0,0-.47-1.54,1.52,1.52,0,0,0-1.24-.59,2.06,2.06,0,0,0-1.07.3,5,5,0,0,0-1.11,1v6.25h-1.72Z"/><path class="cls-1" d="M162.55,211.26h-6.12a2.84,2.84,0,0,0,.83,2,2.79,2.79,0,0,0,2,.74,5.24,5.24,0,0,0,3.14-1.06v1.68a5.52,5.52,0,0,1-1.57.76,6.7,6.7,0,0,1-1.84.23,4.11,4.11,0,0,1-2.33-.6,4.32,4.32,0,0,1-1.42-1.6,4.93,4.93,0,0,1-.54-2.34,4.62,4.62,0,0,1,1.13-3.23,3.77,3.77,0,0,1,2.93-1.25,3.44,3.44,0,0,1,2.76,1.21,4.84,4.84,0,0,1,1,3.25Zm-6.09-1h4.39a2.36,2.36,0,0,0-.62-1.59,1.94,1.94,0,0,0-1.47-.56,2.08,2.08,0,0,0-1.52.56A2.73,2.73,0,0,0,156.46,210.23Z"/><path class="cls-1" d="M166.27,206.75v2l.09-.15c.84-1.35,1.67-2,2.5-2a3.09,3.09,0,0,1,2,1l-.91,1.51a2.55,2.55,0,0,0-1.67-.85,1.78,1.78,0,0,0-1.44.79,3,3,0,0,0-.61,1.89v4.56h-1.74v-8.72Z"/><path class="cls-1" d="M179.14,211.26H173a2.9,2.9,0,0,0,.84,2,2.78,2.78,0,0,0,2,.74,5.24,5.24,0,0,0,3.15-1.06v1.68a5.57,5.57,0,0,1-1.58.76,6.62,6.62,0,0,1-1.83.23,4.09,4.09,0,0,1-2.33-.6,4.43,4.43,0,0,1-1.43-1.6,5,5,0,0,1-.53-2.34,4.58,4.58,0,0,1,1.13-3.23,3.75,3.75,0,0,1,2.92-1.25,3.45,3.45,0,0,1,2.77,1.21,4.84,4.84,0,0,1,1,3.25Zm-6.09-1h4.39a2.41,2.41,0,0,0-.62-1.59,2,2,0,0,0-1.48-.56,2.1,2.1,0,0,0-1.52.56A2.78,2.78,0,0,0,173.05,210.23Z"/><polygon class="cls-2" points="107.44 115.49 120.35 122.88 124.91 89.08 107.44 115.49"/><path class="cls-3" d="M29.87,155.29A89.81,89.81,0,0,0,37,161L42.1,141.9Z"/><path class="cls-4" d="M17,130.28v10.88a89.72,89.72,0,0,0,12.84,14.13L42.1,141.9Z"/><path class="cls-5" d="M12.48,134.27q2.12,3.55,4.55,6.89V130.28Z"/><path class="cls-6" d="M8.86,127.55q1.67,3.45,3.62,6.72l4.55-4Z"/><path class="cls-7" d="M115,138.73l18.36,27a89.56,89.56,0,0,0,10.89-7.46l2.66-19.53Z"/><path class="cls-7" d="M88.44,143,92,177.62c.52,0,1,0,1.55-.06L115,138.73Z"/><path class="cls-8" d="M70.45,1.91q-3.11.64-6.14,1.52A88.34,88.34,0,0,0,52,8l17.48,4,38-7.4Z"/><polygon class="cls-9" points="38.3 63.73 58.05 86.97 70.97 54.22 38.3 63.73"/><path class="cls-10" d="M140.1,55.28l30-2.38q-1.29-2.91-2.78-5.71L143.9,29.93Z"/><polygon class="cls-11" points="38.3 107.04 60.33 128.17 58.05 86.97 38.3 107.04"/><polygon class="cls-12" points="42.1 141.9 60.33 128.17 38.3 107.04 42.1 141.9"/><polygon class="cls-13" points="17.03 130.28 42.1 141.9 38.3 107.04 17.03 130.28"/><polygon class="cls-14" points="107.44 4.57 69.45 11.97 93 34.15 107.44 4.57"/><polygon class="cls-15" points="93 34.15 70.97 54.22 98.32 64.78 93 34.15"/><polygon class="cls-8" points="93 34.15 69.45 11.97 70.97 54.22 93 34.15"/><path class="cls-14" d="M114.73,3.83A89.45,89.45,0,0,0,70.45,1.91l37,2.66Z"/><path class="cls-16" d="M65.05,174.46a88.89,88.89,0,0,0,23.79,3.22c1.06,0,2.11,0,3.16-.06L88.44,143Z"/><path class="cls-17" d="M42.1,141.9l20.82,31.94,1.09.32-3.68-46Z"/><path class="cls-18" d="M37,161a88.65,88.65,0,0,0,26,12.88L42.1,141.9Z"/><polygon class="cls-19" points="69.45 11.97 51.98 32.04 70.97 54.22 69.45 11.97"/><polygon class="cls-8" points="70.97 54.22 51.98 32.04 38.3 63.73 70.97 54.22"/><path class="cls-20" d="M69.45,12,52,8a88.81,88.81,0,0,0-13.48,7.64L52,32Z"/><polygon class="cls-21" points="115.03 138.73 146.94 138.73 120.35 122.88 115.03 138.73"/><path class="cls-22" d="M93.55,177.56a88.64,88.64,0,0,0,24.87-4.92L115,138.73Z"/><path class="cls-13" d="M118.42,172.64a88.49,88.49,0,0,0,15-6.92l-18.36-27Z"/><polygon class="cls-23" points="98.32 64.78 89.2 105.98 119.59 80.63 98.32 64.78"/><path class="cls-24" d="M173.76,115a88.39,88.39,0,0,0,3.65-19.27l-14.52-1.4Z"/><path class="cls-25" d="M172.68,59.39l-9.79,35,14.52,1.4c.18-2.29.27-4.59.27-6.92A88.61,88.61,0,0,0,172.68,59.39Z"/><path class="cls-13" d="M144.28,158.26a89.45,89.45,0,0,0,14.14-14.18l-11.48-5.35Z"/><path class="cls-26" d="M165.21,134.26a87.86,87.86,0,0,0,6.62-13.66l-13.49-3Z"/><path class="cls-9" d="M158.4,117.26l0,.2h0l0,.14,13.49,3c.7-1.83,1.35-3.68,1.93-5.57L162.89,94.36Z"/><path class="cls-27" d="M146.94,138.73l11.48,5.35a90.18,90.18,0,0,0,6.79-9.82l-6.87-16.66Z"/><polygon class="cls-28" points="116.55 19.36 107.44 4.57 99.84 39.43 116.55 19.36"/><polygon class="cls-14" points="99.84 39.43 107.44 4.57 93 34.15 99.84 39.43"/><polygon class="cls-29" points="99.84 39.43 93 34.15 98.32 64.78 99.84 39.43"/><polygon class="cls-30" points="68.69 99.64 89.2 105.98 98.32 64.78 68.69 99.64"/><polygon class="cls-31" points="70.97 54.22 68.69 99.64 98.32 64.78 70.97 54.22"/><polygon class="cls-21" points="58.05 86.97 68.69 99.64 70.97 54.22 58.05 86.97"/><polygon class="cls-24" points="58.05 86.97 60.33 128.17 68.69 99.64 58.05 86.97"/><polygon class="cls-27" points="29.95 76.41 58.05 86.97 38.3 63.73 29.95 76.41"/><polygon class="cls-24" points="38.3 107.04 58.05 86.97 29.95 76.41 38.3 107.04"/><polygon class="cls-11" points="29.95 76.41 21.59 83.8 38.3 107.04 29.95 76.41"/><polygon class="cls-27" points="38.3 63.73 13.99 57.39 29.95 76.41 38.3 63.73"/><polygon class="cls-13" points="13.99 57.39 21.59 83.8 29.95 76.41 13.99 57.39"/><path class="cls-21" d="M14,57.39,11.5,45.1A88.13,88.13,0,0,0,3.74,63.26c-.32,1.05-.61,2.11-.89,3.17L21.59,83.8Z"/><polygon class="cls-32" points="124.91 89.08 124.91 56.34 119.59 80.63 124.91 89.08"/><polygon class="cls-33" points="119.59 80.63 124.91 56.34 98.32 64.78 119.59 80.63"/><polygon class="cls-34" points="124.91 56.34 116.55 19.36 99.84 39.43 124.91 56.34"/><polygon class="cls-35" points="124.91 56.34 99.84 39.43 98.32 64.78 124.91 56.34"/><polygon class="cls-10" points="143.9 29.93 116.55 19.36 124.91 56.34 143.9 29.93"/><polygon class="cls-36" points="140.1 55.28 143.9 29.93 124.91 56.34 140.1 55.28"/><polygon class="cls-19" points="124.91 89.08 140.1 55.28 124.91 56.34 124.91 89.08"/><path class="cls-14" d="M116.55,19.36l26.3-1.06A88.55,88.55,0,0,0,125.14,7.73l-17.7-3.16Z"/><path class="cls-37" d="M116.6,4.42l-1.87-.59-7.29.74,17.7,3.16A90.83,90.83,0,0,0,116.6,4.42Z"/><path class="cls-29" d="M167.33,47.19a89.2,89.2,0,0,0-15.08-20.57l-8.35,3.31Z"/><path class="cls-38" d="M143.9,29.93l8.35-3.31a88.45,88.45,0,0,0-9.4-8.32l-26.3,1.06Z"/><polygon class="cls-26" points="21.59 83.8 17.79 109.15 38.3 107.04 21.59 83.8"/><polygon class="cls-5" points="17.79 109.15 17.03 130.28 38.3 107.04 17.79 109.15"/><path class="cls-13" d="M21.59,83.8,2.85,66.43c-.16.62-.31,1.23-.46,1.85l15.4,40.87Z"/><path class="cls-39" d="M17.79,109.15,5.12,118.64a89.57,89.57,0,0,0,3.74,8.91L17,130.28Z"/><path class="cls-7" d="M2.39,68.28a89.42,89.42,0,0,0,2.73,50.36l12.67-9.49Z"/><polygon class="cls-40" points="51.98 32.04 25.39 36.26 38.3 63.73 51.98 32.04"/><path class="cls-8" d="M52,32,38.49,15.63A90.32,90.32,0,0,0,26.08,26l-.69,10.3Z"/><polygon class="cls-41" points="25.39 36.26 13.99 57.39 38.3 63.73 25.39 36.26"/><path class="cls-19" d="M26.08,26c-1.82,1.82-3.57,3.72-5.23,5.7l4.54,4.6Z"/><path class="cls-27" d="M25.39,36.26l-4.54-4.6A88.87,88.87,0,0,0,11.5,45.1L14,57.39Z"/><polygon class="cls-9" points="120.35 122.88 120.58 122.58 120.63 122.51 147.7 85.91 124.91 89.08 120.35 122.88"/><path class="cls-8" d="M162.89,94.36l9.79-35q-.54-1.55-1.14-3.06L147.7,85.91Z"/><path class="cls-29" d="M147.7,85.91l23.84-29.58c-.45-1.15-.93-2.3-1.43-3.43l-30,2.38Z"/><polygon class="cls-24" points="158.23 117.28 158.34 117.6 162.9 94.36 147.7 85.91 158.23 117.28"/><polygon class="cls-42" points="158.23 117.28 147.7 85.91 120.35 122.88 158.23 117.28"/><polygon class="cls-8" points="147.7 85.91 140.1 55.28 124.91 89.08 147.7 85.91"/><polygon class="cls-43" points="70.21 129.22 88.44 142.96 89.2 105.98 70.21 129.22"/><polygon class="cls-26" points="68.69 99.64 70.21 129.22 89.2 105.98 68.69 99.64"/><path class="cls-44" d="M70.21,129.22l-5.89,45,.73.21L88.44,143Z"/><polygon class="cls-45" points="60.33 128.17 70.21 129.22 68.69 99.64 60.33 128.17"/><path class="cls-46" d="M60.33,128.17l3.68,46,.31.09,5.89-45Z"/><polygon class="cls-9" points="119.59 80.63 107.44 115.49 124.91 89.08 119.59 80.63"/><polygon class="cls-26" points="107.44 115.49 115.03 138.73 120.35 122.88 107.44 115.49"/><polygon class="cls-47" points="89.2 105.98 107.44 115.49 119.59 80.63 89.2 105.98"/><polygon class="cls-27" points="88.44 142.96 115.03 138.73 107.44 115.49 88.44 142.96"/><polygon class="cls-48" points="89.2 105.98 88.44 142.96 107.44 115.49 89.2 105.98"/><polygon class="cls-26" points="120.35 122.88 158.23 117.28 158.34 117.6 146.94 138.73 120.35 122.88"/><polygon class="cls-21" points="120.35 122.88 107.44 115.49 124.91 89.08 120.35 122.88"/><path class="cls-1" d="M74.16,94.79H47.87L36.19,106.22v28.56L47.87,146.2H74.82l11-11.42V106.21Zm0,40H47.87V106.21H74.16Z"/><polygon class="cls-1" points="141.49 94.79 130.06 94.79 130.06 134.78 130.06 135.85 122.92 135.85 122.92 134.78 122.92 120.5 122.92 106.21 111.5 94.79 104.36 94.79 92.94 106.21 92.94 114.07 92.94 120.5 92.94 126.92 92.94 146.2 104.36 146.2 104.36 126.92 104.36 120.5 104.36 114.07 104.36 106.21 111.5 106.21 111.5 120.5 111.5 134.78 122.92 146.2 122.92 146.2 130.06 146.2 130.06 146.2 141.49 134.78 141.49 94.79"/></g></g></svg>