<svg xmlns="http://www.w3.org/2000/svg" viewBox="0 0 50.4 24.61"><defs><style>.cls-1{fill:#f26a21;}</style></defs><g id="Layer_2" data-name="Layer 2"><g id="Layer_1-2" data-name="Layer 1"><path class="cls-1" d="M18.17,0H5.59L0,5.47V19.14l5.59,5.47h12.9l5.27-5.47V5.47Zm0,19.14H5.59V5.47H18.17Z"/><polygon class="cls-1" points="50.4 0 44.93 0 44.93 19.14 44.93 19.65 41.51 19.65 41.51 19.14 41.51 12.3 41.51 5.47 36.04 0 32.63 0 27.16 5.47 27.16 9.23 27.16 12.3 27.16 15.38 27.16 24.61 32.63 24.61 32.63 15.38 32.63 12.3 32.63 9.23 32.63 5.47 36.04 5.47 36.04 12.3 36.04 19.14 41.51 24.61 41.51 24.61 44.93 24.61 44.93 24.61 50.4 19.14 50.4 0"/></g></g></svg>